<svg width="24" height="24" viewBox="0 0 24 24" fill="none" xmlns="http://www.w3.org/2000/svg">
<path fill-rule="evenodd" clip-rule="evenodd" d="M1.25 12C1.25 6.06279 6.06279 1.25 12 1.25C17.9372 1.25 22.75 6.06279 22.75 12C22.75 17.9372 17.9372 22.75 12 22.75C8.06462 22.75 4.62325 20.6355 2.75 17.4806V22C2.75 22.4142 2.41421 22.75 2 22.75C1.58579 22.75 1.25 22.4142 1.25 22V12ZM2.75 12C2.75 17.1088 6.89121 21.25 12 21.25C17.1088 21.25 21.25 17.1088 21.25 12C21.25 6.89121 17.1088 2.75 12 2.75C6.89121 2.75 2.75 6.89121 2.75 12ZM10.0555 5.05546C10.5712 4.53973 11.2707 4.25 12 4.25C12.7293 4.25 13.4288 4.53973 13.9445 5.05546C14.4603 5.57118 14.75 6.27065 14.75 7C14.75 7.72935 14.4603 8.42882 13.9445 8.94454C13.4288 9.46027 12.7293 9.75 12 9.75C11.2707 9.75 10.5712 9.46027 10.0555 8.94454C9.53973 8.42882 9.25 7.72935 9.25 7C9.25 6.27065 9.53973 5.57118 10.0555 5.05546ZM12 5.75C11.6685 5.75 11.3505 5.8817 11.1161 6.11612C10.8817 6.35054 10.75 6.66848 10.75 7C10.75 7.33152 10.8817 7.64946 11.1161 7.88388C11.3505 8.1183 11.6685 8.25 12 8.25C12.3315 8.25 12.6495 8.1183 12.8839 7.88388C13.1183 7.64946 13.25 7.33152 13.25 7C13.25 6.66848 13.1183 6.35054 12.8839 6.11612C12.6495 5.8817 12.3315 5.75 12 5.75ZM5.05546 10.0555C5.57118 9.53973 6.27065 9.25 7 9.25C7.72935 9.25 8.42882 9.53973 8.94454 10.0555C9.46027 10.5712 9.75 11.2707 9.75 12C9.75 12.7293 9.46027 13.4288 8.94454 13.9445C8.42882 14.4603 7.72935 14.75 7 14.75C6.27065 14.75 5.57118 14.4603 5.05546 13.9445C4.53973 13.4288 4.25 12.7293 4.25 12C4.25 11.2707 4.53973 10.5712 5.05546 10.0555ZM7 10.75C6.66848 10.75 6.35054 10.8817 6.11612 11.1161C5.8817 11.3505 5.75 11.6685 5.75 12C5.75 12.3315 5.8817 12.6495 6.11612 12.8839C6.35054 13.1183 6.66848 13.25 7 13.25C7.33152 13.25 7.64946 13.1183 7.88388 12.8839C8.1183 12.6495 8.25 12.3315 8.25 12C8.25 11.6685 8.1183 11.3505 7.88388 11.1161C7.64946 10.8817 7.33152 10.75 7 10.75ZM15.0555 10.0555C15.5712 9.53973 16.2707 9.25 17 9.25C17.7293 9.25 18.4288 9.53973 18.9445 10.0555C19.4603 10.5712 19.75 11.2707 19.75 12C19.75 12.7293 19.4603 13.4288 18.9445 13.9445C18.4288 14.4603 17.7293 14.75 17 14.75C16.2707 14.75 15.5712 14.4603 15.0555 13.9445C14.5397 13.4288 14.25 12.7293 14.25 12C14.25 11.2707 14.5397 10.5712 15.0555 10.0555ZM17 10.75C16.6685 10.75 16.3505 10.8817 16.1161 11.1161C15.8817 11.3505 15.75 11.6685 15.75 12C15.75 12.3315 15.8817 12.6495 16.1161 12.8839C16.3505 13.1183 16.6685 13.25 17 13.25C17.3315 13.25 17.6495 13.1183 17.8839 12.8839C18.1183 12.6495 18.25 12.3315 18.25 12C18.25 11.6685 18.1183 11.3505 17.8839 11.1161C17.6495 10.8817 17.3315 10.75 17 10.75ZM10.0555 15.0555C10.5712 14.5397 11.2707 14.25 12 14.25C12.7293 14.25 13.4288 14.5397 13.9445 15.0555C14.4603 15.5712 14.75 16.2707 14.75 17C14.75 17.7293 14.4603 18.4288 13.9445 18.9445C13.4288 19.4603 12.7293 19.75 12 19.75C11.2707 19.75 10.5712 19.4603 10.0555 18.9445C9.53973 18.4288 9.25 17.7293 9.25 17C9.25 16.2707 9.53973 15.5712 10.0555 15.0555ZM12 15.75C11.6685 15.75 11.3505 15.8817 11.1161 16.1161C10.8817 16.3505 10.75 16.6685 10.75 17C10.75 17.3315 10.8817 17.6495 11.1161 17.8839C11.3505 18.1183 11.6685 18.25 12 18.25C12.3315 18.25 12.6495 18.1183 12.8839 17.8839C13.1183 17.6495 13.25 17.3315 13.25 17C13.25 16.6685 13.1183 16.3505 12.8839 16.1161C12.6495 15.8817 12.3315 15.75 12 15.75Z" fill="#3D3D3D"/>
</svg>
