<svg width="24" height="24" viewBox="0 0 24 24" fill="none" xmlns="http://www.w3.org/2000/svg">
<g clip-path="url(#clip0_3108_776)">
<path fill-rule="evenodd" clip-rule="evenodd" d="M12 0.25C12.4142 0.25 12.75 0.585786 12.75 1V2C12.75 2.41421 12.4142 2.75 12 2.75C11.5858 2.75 11.25 2.41421 11.25 2V1C11.25 0.585786 11.5858 0.25 12 0.25ZM3.46967 3.46967C3.76256 3.17678 4.23744 3.17678 4.53033 3.46967L5.53033 4.46967C5.82322 4.76256 5.82322 5.23744 5.53033 5.53033C5.23744 5.82322 4.76256 5.82322 4.46967 5.53033L3.46967 4.53033C3.17678 4.23744 3.17678 3.76256 3.46967 3.46967ZM20.5303 3.46967C20.8232 3.76256 20.8232 4.23744 20.5303 4.53033L19.5303 5.53033C19.2374 5.82322 18.7626 5.82322 18.4697 5.53033C18.1768 5.23744 18.1768 4.76256 18.4697 4.46967L19.4697 3.46967C19.7626 3.17678 20.2374 3.17678 20.5303 3.46967ZM12 7.03935L10.6308 9.94264C10.5243 10.1684 10.3125 10.3264 10.0658 10.3641L6.93497 10.8431L9.22236 13.1749C9.38969 13.3455 9.46572 13.5856 9.42708 13.8214L8.89458 17.0708L11.6384 15.5606C11.8635 15.4367 12.1365 15.4367 12.3616 15.5606L15.1054 17.0708L14.5729 13.8214C14.5342 13.5856 14.6103 13.3455 14.7776 13.1749L17.0651 10.8431L13.9342 10.3641C13.6875 10.3264 13.4757 10.1684 13.3693 9.94264L12 7.03935ZM6.58095 10.8972L6.58053 10.8973L6.58051 10.8973C6.58066 10.8973 6.5808 10.8972 6.58095 10.8972ZM10.8326 5.99819C11.3031 5.00061 12.6969 5.00061 13.1674 5.99819L13.1674 5.99824L14.5556 8.94172L17.6463 9.41452C17.6463 9.41452 17.6463 9.41453 17.6463 9.41453C18.7435 9.58235 19.0891 10.9218 18.37 11.6548L18.37 11.6548L16.1146 13.9539L16.6482 17.2101L16.6482 17.2102C16.8127 18.2141 15.773 19.1506 14.755 18.5901L12 17.0738L9.24501 18.5901C9.24498 18.5901 9.24495 18.5901 9.24491 18.5902C8.22698 19.1505 7.18724 18.2141 7.35174 17.2101L7.35174 17.2101L7.88535 13.9539L5.63007 11.6548C5.63006 11.6548 5.63005 11.6548 5.63004 11.6548C4.91088 10.9217 5.25661 9.58233 6.35371 9.41452L9.44437 8.94172L10.8326 5.99824L10.8326 5.99819ZM0.25 12C0.25 11.5858 0.585786 11.25 1 11.25H2C2.41421 11.25 2.75 11.5858 2.75 12C2.75 12.4142 2.41421 12.75 2 12.75H1C0.585786 12.75 0.25 12.4142 0.25 12ZM21.25 12C21.25 11.5858 21.5858 11.25 22 11.25H23C23.4142 11.25 23.75 11.5858 23.75 12C23.75 12.4142 23.4142 12.75 23 12.75H22C21.5858 12.75 21.25 12.4142 21.25 12ZM5.53033 18.4697C5.82322 18.7626 5.82322 19.2374 5.53033 19.5303L4.53033 20.5303C4.23744 20.8232 3.76256 20.8232 3.46967 20.5303C3.17678 20.2374 3.17678 19.7626 3.46967 19.4697L4.46967 18.4697C4.76256 18.1768 5.23744 18.1768 5.53033 18.4697ZM18.4697 18.4697C18.7626 18.1768 19.2374 18.1768 19.5303 18.4697L20.5303 19.4697C20.8232 19.7626 20.8232 20.2374 20.5303 20.5303C20.2374 20.8232 19.7626 20.8232 19.4697 20.5303L18.4697 19.5303C18.1768 19.2374 18.1768 18.7626 18.4697 18.4697ZM12 21.25C12.4142 21.25 12.75 21.5858 12.75 22V23C12.75 23.4142 12.4142 23.75 12 23.75C11.5858 23.75 11.25 23.4142 11.25 23V22C11.25 21.5858 11.5858 21.25 12 21.25Z" fill="#3D3D3D"/>
</g>
<defs>
<clipPath id="clip0_3108_776">
<rect width="24" height="24" fill="white"/>
</clipPath>
</defs>
</svg>
