<svg width="24" height="24" viewBox="0 0 24 24" fill="none" xmlns="http://www.w3.org/2000/svg">
<path fill-rule="evenodd" clip-rule="evenodd" d="M2.75 3.75V16.25H21.25V3.75H2.75ZM1.64541 2.64541C1.89858 2.39223 2.24196 2.25 2.6 2.25H21.4C21.758 2.25 22.1014 2.39223 22.3546 2.64541C22.6078 2.89858 22.75 3.24196 22.75 3.6V16.4C22.75 16.758 22.6078 17.1014 22.3546 17.3546C22.1014 17.6078 21.758 17.75 21.4 17.75H2.6C2.24196 17.75 1.89858 17.6078 1.64541 17.3546C1.39223 17.1014 1.25 16.758 1.25 16.4V3.6C1.25 3.24196 1.39223 2.89858 1.64541 2.64541ZM6.25 21C6.25 20.5858 6.58579 20.25 7 20.25H17C17.4142 20.25 17.75 20.5858 17.75 21C17.75 21.4142 17.4142 21.75 17 21.75H7C6.58579 21.75 6.25 21.4142 6.25 21Z" fill="none"/>
</svg>
