<svg width="24" height="24" viewBox="0 0 24 24" fill="none" xmlns="http://www.w3.org/2000/svg">
<path fill-rule="evenodd" clip-rule="evenodd" d="M1.25 12C1.25 6.06294 6.06294 1.25 12 1.25C17.937 1.25 22.75 6.06293 22.75 12C22.75 14.583 21.839 16.9533 20.3207 18.8069C20.3131 18.8167 20.3052 18.8263 20.2971 18.8357C18.3254 21.2262 15.3406 22.75 12 22.75C8.65784 22.75 5.67191 21.2248 3.70025 18.8325C3.69401 18.8252 3.68794 18.8178 3.68202 18.8103C2.16212 16.9561 1.25 14.5846 1.25 12ZM4.85868 18.8117C4.85829 18.8122 4.85842 18.812 4.85909 18.8112ZM5.2993 18.3768C6.98426 20.1468 9.3633 21.25 12 21.25C14.6367 21.25 17.0158 20.1468 18.7007 18.3767C18.441 18.1517 18.0627 17.8642 17.5549 17.574C16.4184 16.9245 14.6138 16.25 12 16.25C9.38624 16.25 7.58162 16.9245 6.44517 17.574C5.93733 17.8642 5.55904 18.1518 5.2993 18.3768ZM19.6444 17.2098C19.3208 16.9334 18.8759 16.6013 18.2992 16.2717C16.9461 15.4984 14.8862 14.75 12 14.75C9.11378 14.75 7.0539 15.4984 5.70085 16.2717C5.12411 16.6013 4.67925 16.9335 4.35567 17.2099C3.34247 15.7261 2.75 13.9323 2.75 12C2.75 6.89136 6.89136 2.75 12 2.75C17.1086 2.75 21.25 6.89137 21.25 12C21.25 13.9322 20.6575 15.7261 19.6444 17.2098ZM8.25 9C8.25 6.92894 9.92888 5.25 12 5.25C14.0711 5.25 15.75 6.92894 15.75 9C15.75 11.0711 14.0711 12.75 12 12.75C9.92889 12.75 8.25 11.0711 8.25 9ZM12 6.75C10.7573 6.75 9.75 7.75736 9.75 9C9.75 10.2427 10.7573 11.25 12 11.25C13.2427 11.25 14.25 10.2427 14.25 9C14.25 7.75736 13.2427 6.75 12 6.75Z" fill="#3D3D3D"/>
</svg>
